<?xml version="1.0" encoding="UTF-8"?>
<svg id="Layer_2" data-name="Layer 2" xmlns="http://www.w3.org/2000/svg" viewBox="0 0 100 100">
  <g id="Layer_1-2" data-name="Layer 1">
    <g>
      <rect y="0" width="100" height="100" rx="11.37" ry="11.37" style="fill: #fff;"/>
      <g>
        <path d="M34.13,59.12c3.94,0,6.96.72,8.98,2.21,2.05,1.46,3.09,3.67,3.09,6.66,0,1.63-.27,3.12-.77,4.45-.52,1.33-1.34,2.43-2.46,3.34s-2.55,1.6-4.3,2.1c-1.75.47-3.83.72-6.27.72H2.5l6.38-8.34h24.29c1.2,0,2.05-.19,2.6-.55s.82-.97.82-1.82-.27-1.44-.82-1.8c-.55-.33-1.4-.52-2.6-.52H15.7c-2.08,0-3.86-.22-5.37-.66-1.51-.47-2.77-1.1-3.75-1.91-.99-.8-1.73-1.77-2.22-2.93-.47-1.13-.71-2.4-.71-3.81,0-1.52.27-2.9.79-4.14s1.34-2.29,2.44-3.15c1.12-.88,2.55-1.57,4.27-2.04,1.75-.5,3.83-.72,6.27-.72h27.91l-6.38,8.42h-22.29c-1.15,0-2,.17-2.57.47-.55.33-.82.91-.82,1.74s.27,1.44.82,1.77c.58.36,1.42.52,2.57.52h17.47Z" style="fill: #151616;"/>
        <polygon points="81.2 54.61 61.68 54.61 61.68 58.81 78.11 58.81 72.33 66.71 61.68 66.71 61.68 78.59 51.68 78.59 51.68 46.19 87.37 46.19 81.2 54.61" style="fill: #151616;"/>
        <path d="M104.62,78.59l-7.39-6.85,6.6-6.32c1.1.88,2.41,1.96,3.92,3.26l11.8,9.91h-14.92Z" style="fill: #151616; fill-rule: evenodd;"/>
        <polygon points="79.75 67.15 93.75 46.19 106.95 46.19 95.58 59.92 106.04 59.92 86.27 78.81 90.54 67.15 79.75 67.15" style="fill: #f7ae19; fill-rule: evenodd;"/>
        <polygon points="100.51 57.87 109.82 46.47 122.5 46.47 112.72 57.87 100.51 57.87" style="fill: #151616; fill-rule: evenodd;"/>
      </g>
    </g>
  </g>
</svg>